<svg width="1024" height="1024" xmlns="http://www.w3.org/2000/svg">

 <g>
  <title>background</title>
  <rect fill="none" id="canvas_background" height="402" width="582" y="-1" x="-1"/>
 </g>
 <g>
  <title>Layer 1</title>
  <path id="svg_1" fill="#0be370" transform="scale(64) " d="m8,0c-4.42,0 -8,3.58 -8,8c0,3.54 2.29,6.53 5.47,7.59c0.4,0.07 0.55,-0.17 0.55,-0.38c0,-0.19 -0.01,-0.82 -0.01,-1.49c-2.01,0.37 -2.53,-0.49 -2.69,-0.94c-0.09,-0.23 -0.48,-0.94 -0.82,-1.13c-0.28,-0.15 -0.68,-0.52 -0.01,-0.53c0.63,-0.01 1.08,0.58 1.23,0.82c0.72,1.21 1.87,0.87 2.33,0.66c0.07,-0.52 0.28,-0.87 0.51,-1.07c-1.78,-0.2 -3.64,-0.89 -3.64,-3.95c0,-0.87 0.31,-1.59 0.82,-2.15c-0.08,-0.2 -0.36,-1.02 0.08,-2.12c0,0 0.67,-0.21 2.2,0.82c0.64,-0.18 1.32,-0.27 2,-0.27c0.68,0 1.36,0.09 2,0.27c1.53,-1.04 2.2,-0.82 2.2,-0.82c0.44,1.1 0.16,1.92 0.08,2.12c0.51,0.56 0.82,1.27 0.82,2.15c0,3.07 -1.87,3.75 -3.65,3.95c0.29,0.25 0.54,0.73 0.54,1.48c0,1.07 -0.01,1.93 -0.01,2.2c0,0.21 0.15,0.46 0.55,0.38c3.16,-1.06 5.45,-4.06 5.45,-7.59c0,-4.42 -3.58,-8 -8,-8z" clip-rule="evenodd" fill-rule="evenodd"/>
  <g stroke="null" id="svg_6">
   <path stroke="null" id="svg_5" fill="#00AB6C" d="m767.555571,328.656842l-19.97754,0c-7.416847,0 -17.905795,10.700069 -17.905795,17.548666l0,248.266072c0,6.856489 10.488949,16.204991 17.905795,16.204991l19.97754,0l0,58.930291l-180.997501,0l0,-58.930291l37.883336,0l0,-260.974747l-1.856678,0l-88.465481,319.905038l-68.489914,0l-87.325035,-319.905038l-2.209861,0l0,260.974747l37.883336,0l0,58.930291l-151.533342,0l0,-58.930291l19.405344,0c7.989043,0 18.477992,-9.348502 18.477992,-16.204991l0,-248.268045c0,-6.848597 -10.488949,-17.548666 -18.477992,-17.548666l-19.405344,0l0,-58.928318l189.483763,0l62.21154,231.508615l1.716589,0l62.781763,-231.508615l188.917486,0l0,58.930291"/>
  </g>
 </g>
</svg>